<?xml version="1.0" encoding="UTF-8"?><svg xmlns="http://www.w3.org/2000/svg" xmlns:xlink="http://www.w3.org/1999/xlink" viewBox="0 0 500 500"><defs><style>.cls-1{stroke-width:.26px;}.cls-1,.cls-2,.cls-3,.cls-4{fill:none;}.cls-1,.cls-3,.cls-5,.cls-4{stroke-miterlimit:10;}.cls-1,.cls-5{stroke:#686863;}.cls-6{fill:#d6d4b2;}.cls-6,.cls-2,.cls-7{opacity:.3;}.cls-8{fill:#e0afaf;stroke:#442929;stroke-linejoin:round;stroke-width:.5px;}.cls-9{mix-blend-mode:screen;opacity:.79;}.cls-10,.cls-5{fill:#fff;}.cls-7{fill:#d6d6d6;}.cls-11{fill:#e27474;opacity:.61;}.cls-12{clip-path:url(#clippath-1);}.cls-13{fill:#8d8e8e;}.cls-14{isolation:isolate;}.cls-15{fill:#5d5e5e;}.cls-3{stroke-width:.1px;}.cls-3,.cls-4{stroke:#fff;}.cls-16{fill:#9b7676;}.cls-17{clip-path:url(#clippath);}.cls-5{stroke-width:.13px;}.cls-4{stroke-width:.3px;}</style><clipPath id="clippath"><path class="cls-4" d="M409.54,246.92c0-80.17-73.4-145.17-163.94-145.17S81.65,166.75,81.65,246.92c0,16.24,9.08,48.58,9.35,49.64,16.19,62.58,79.25,109.25,154.59,109.25s133.57-43.18,152.53-102.17c1.09-3.38,11.41-40.49,11.41-56.73Z"/></clipPath><clipPath id="clippath-1"><path class="cls-2" d="M404.21,258.97c0-78.78-71.02-142.64-158.62-142.64s-158.62,63.86-158.62,142.64c0,.99.01,1.98.04,2.96-.02.97-.04,1.95-.04,2.93,0,77.85,71.02,140.96,158.62,140.96s158.62-63.11,158.62-140.96c0-.98-.01-1.95-.04-2.93.02-.98.04-1.97.04-2.96Z"/></clipPath></defs><g class="cls-14"><g id="Petri_dish_with_HEK_cells"><g class="cls-17"><g class="cls-12"><path class="cls-13" d="M245.6,124.19c42.3,0,82.06,14.64,111.96,41.21,29.89,26.57,46.36,61.89,46.36,99.45s-16.46,72.89-46.36,99.45c-29.9,26.58-69.67,41.21-111.96,41.21s-82.06-14.64-111.96-41.21c-29.89-26.57-46.36-61.89-46.36-99.45s16.46-72.89,46.36-99.45c29.9-26.58,69.67-41.21,111.96-41.21M245.6,123.89c-87.6,0-158.62,63.11-158.62,140.96s71.02,140.96,158.62,140.96,158.62-63.11,158.62-140.96-71.02-140.96-158.62-140.96h0Z"/><ellipse class="cls-4" cx="245.6" cy="264.86" rx="158.62" ry="140.96"/><ellipse class="cls-3" cx="245.6" cy="258.97" rx="158.62" ry="142.64"/></g><path class="cls-11" d="M404.21,258.97c0-78.78-71.02-142.64-158.62-142.64s-158.62,63.86-158.62,142.64c0,.99.01,1.98.04,2.96-.02.97-.04,1.95-.04,2.93,0,77.85,71.02,140.96,158.62,140.96s158.62-63.11,158.62-140.96c0-.98-.01-1.95-.04-2.93.02-.98.04-1.97.04-2.96Z"/><path class="cls-6" d="M169.99,388.81c-1.69-.81-3.35-1.65-5-2.52,1.65.87,3.32,1.71,5,2.52Z"/><path class="cls-6" d="M161.14,384.19c-.88-.5-1.76-1-2.64-1.51.87.51,1.75,1.01,2.64,1.51Z"/><path class="cls-6" d="M151.3,378.21c1.84,1.21,3.71,2.39,5.61,3.53-1.9-1.14-3.77-2.32-5.61-3.53Z"/><path class="cls-6" d="M126.91,358.38c-.84-.84-1.67-1.7-2.49-2.56.82.86,1.65,1.71,2.49,2.56Z"/><path class="cls-6" d="M132.1,363.33c-1.77-1.61-3.5-3.26-5.19-4.95,1.68,1.69,3.41,3.34,5.19,4.95Z"/><path class="cls-6" d="M210.16,402.29c11.39,2.31,23.26,3.53,35.44,3.53,26.69,0,51.84-5.86,73.91-16.21-22.07,10.35-47.22,16.21-73.91,16.21-12.18,0-24.04-1.22-35.44-3.53Z"/><path class="cls-6" d="M340.5,377.82c-2.54,1.69-5.15,3.32-7.81,4.87,2.66-1.56,5.26-3.18,7.81-4.87Z"/><path class="cls-6" d="M209.37,402.12c-1.63-.34-3.25-.7-4.87-1.08,1.61.38,3.23.74,4.87,1.08Z"/><path class="cls-6" d="M332.69,382.69c-1.06.62-2.14,1.23-3.22,1.83,1.08-.6,2.15-1.21,3.22-1.83Z"/><path class="cls-6" d="M203.6,400.82c-11.18-2.72-21.87-6.5-31.91-11.21,10.05,4.71,20.73,8.49,31.91,11.21Z"/><path class="cls-6" d="M134.79,365.72c-.91-.79-1.8-1.58-2.69-2.39.89.81,1.78,1.6,2.69,2.39Z"/><path class="cls-6" d="M141.79,371.45c-2.4-1.85-4.73-3.76-7-5.72,2.27,1.97,4.6,3.88,7,5.72Z"/><path class="cls-6" d="M105.22,330.54c-.9-1.51-1.76-3.03-2.6-4.57.84,1.54,1.7,3.07,2.6,4.57Z"/><path class="cls-6" d="M93,303.45c-.36-1.11-.7-2.24-1.02-3.36.33,1.13.67,2.25,1.02,3.36Z"/><path class="cls-6" d="M329.47,384.52c-2.7,1.5-5.46,2.93-8.27,4.29,2.81-1.36,5.57-2.79,8.27-4.29Z"/><path class="cls-6" d="M95.31,310.07c-.83-2.18-1.6-4.39-2.32-6.62.71,2.23,1.49,4.44,2.32,6.62Z"/><path class="cls-6" d="M100.21,321.3c-1.29-2.62-2.49-5.28-3.6-7.98,1.11,2.7,2.31,5.36,3.6,7.98Z"/><path class="cls-6" d="M91.5,298.39c-.31-1.13-.61-2.27-.89-3.41.28,1.14.58,2.28.89,3.41Z"/><path class="cls-6" d="M96.6,313.32c-.44-1.08-.88-2.17-1.29-3.26.42,1.09.85,2.18,1.29,3.26Z"/><path class="cls-6" d="M149.17,376.79c-2.52-1.72-4.98-3.5-7.38-5.35,2.4,1.85,4.86,3.63,7.38,5.35Z"/><path class="cls-6" d="M120.81,351.89c-.78-.89-1.56-1.78-2.32-2.69.76.9,1.53,1.8,2.32,2.69Z"/><path class="cls-6" d="M116.24,346.46c-1.11-1.38-2.18-2.78-3.23-4.2,1.05,1.42,2.13,2.82,3.23,4.2Z"/><path class="cls-6" d="M113.01,342.26c-1.05-1.42-2.07-2.85-3.07-4.31.99,1.45,2.02,2.89,3.07,4.31Z"/><path class="cls-6" d="M107.99,335.02c-.64-.98-1.26-1.98-1.87-2.97.61,1,1.23,1.99,1.87,2.97Z"/><path class="cls-6" d="M381.25,337.95c-.99,1.45-2.02,2.89-3.07,4.31,1.05-1.42,2.07-2.85,3.07-4.31Z"/><path class="cls-6" d="M403.75,275.7c-.46,5.37-1.26,10.65-2.38,15.84,1.12-5.18,1.92-10.47,2.38-15.84Z"/><path class="cls-6" d="M400.58,294.98c-.28,1.14-.58,2.28-.89,3.41.31-1.13.61-2.27.89-3.41Z"/><path class="cls-6" d="M398.2,303.45c-.71,2.23-1.49,4.44-2.32,6.62.83-2.18,1.6-4.39,2.32-6.62Z"/><path class="cls-6" d="M404.21,264.86h0c0,1.82-.04,3.64-.12,5.45.08-1.81.12-3.62.12-5.45Z"/><path class="cls-6" d="M395.88,310.07c-.42,1.09-.85,2.18-1.29,3.26.44-1.08.88-2.17,1.29-3.26Z"/><path class="cls-6" d="M394.59,313.32c-1.11,2.7-2.31,5.36-3.6,7.98,1.29-2.62,2.49-5.28,3.6-7.98Z"/><path class="cls-6" d="M404.1,270.31c-.08,1.81-.19,3.61-.35,5.4.15-1.79.27-3.59.35-5.4Z"/><path class="cls-6" d="M404.2,263.35c0-.47-.01-.94-.03-1.41.01.47.02.94.03,1.41Z"/><path class="cls-6" d="M87.44,275.7c.46,5.37,1.26,10.65,2.38,15.84-1.12-5.18-1.92-10.47-2.38-15.84Z"/><path class="cls-6" d="M87.1,270.31c-.08-1.81-.12-3.62-.12-5.45h0c0,1.82.04,3.64.12,5.45Z"/><path class="cls-6" d="M366.77,355.82c-.82.86-1.65,1.71-2.49,2.56.84-.84,1.67-1.7,2.49-2.56Z"/><path class="cls-6" d="M87.02,261.93c-.01.47-.02.94-.03,1.41,0-.47.01-.94.03-1.41Z"/><path class="cls-6" d="M87.1,270.31c.08,1.81.19,3.61.35,5.4-.15-1.79-.27-3.59-.35-5.4Z"/><path class="cls-6" d="M378.19,342.26c-1.05,1.42-2.13,2.82-3.23,4.2,1.11-1.38,2.18-2.78,3.23-4.2Z"/><path class="cls-6" d="M349.4,371.45c-2.4,1.85-4.86,3.63-7.38,5.35,2.52-1.72,4.98-3.5,7.38-5.35Z"/><path class="cls-6" d="M356.4,365.72c-2.27,1.97-4.6,3.88-7,5.72,2.4-1.85,4.73-3.76,7-5.72Z"/><path class="cls-6" d="M364.28,358.38c-2.53,2.53-5.15,4.98-7.88,7.34,2.72-2.36,5.35-4.81,7.88-7.34Z"/><path class="cls-6" d="M385.07,332.05c-.61,1-1.23,1.99-1.87,2.97.64-.98,1.26-1.98,1.87-2.97Z"/><path class="cls-6" d="M372.7,349.2c-.76.9-1.53,1.8-2.32,2.69.78-.89,1.56-1.78,2.32-2.69Z"/><path class="cls-6" d="M399.22,300.09c-.33,1.13-.67,2.25-1.02,3.36.36-1.11.7-2.24,1.02-3.36Z"/><path class="cls-6" d="M388.57,325.97c-1.11,2.05-2.28,4.08-3.5,6.08,1.22-2,2.39-4.02,3.5-6.08Z"/><path class="cls-7" d="M403.19,262.34c0-78.78-69.99-146.01-157.59-146.01s-158.62,63.86-158.62,142.64c0,.99.01,1.98.04,2.96,0,0,0,0,0,0,1.75-76.5,72.92-136.27,158.11-135.98,87.93.29,156.27,62.85,158.02,139.35,0,0,1.03-3.36,1.03-3.37.02-.98-.99,1.39-.99.4Z"/><path class="cls-6" d="M86.98,264.86c0-.5,0-1.01.01-1.51,0,.5-.01,1.01-.01,1.51h0Z"/><path class="cls-6" d="M404.2,263.35c0,.5.01,1.01.01,1.51h0c0-.5,0-1.01-.01-1.51Z"/><path class="cls-6" d="M151.3,378.21c-.71-.47-1.42-.94-2.13-1.42.7.48,1.41.95,2.13,1.42Z"/><path class="cls-6" d="M204.5,401.04c-.3-.07-.61-.15-.91-.22.3.07.61.15.91.22Z"/><path class="cls-6" d="M161.14,384.19c.73.41,1.47.82,2.21,1.22-.74-.4-1.48-.81-2.21-1.22Z"/><path class="cls-6" d="M210.16,402.29c-.26-.05-.52-.11-.79-.16.26.05.52.11.79.16Z"/></g><path class="cls-4" d="M409.54,246.92c0-80.17-73.4-145.17-163.94-145.17S81.65,166.75,81.65,246.92c0,16.24,9.08,48.58,9.35,49.64,16.19,62.58,79.25,109.25,154.59,109.25s133.57-43.18,152.53-102.17c1.09-3.38,11.41-40.49,11.41-56.73Z"/><path class="cls-15" d="M245.6,101.76c90.54,0,163.94,64.99,163.94,145.17,0,16.24-10.32,53.35-11.41,56.73-18.96,58.99-80.07,102.17-152.53,102.17s-138.4-46.67-154.59-109.25c-.27-1.06-9.35-33.4-9.35-49.64,0-80.17,73.4-145.17,163.94-145.17M245.6,101.23c-43.92,0-85.21,15.15-116.28,42.65-31.08,27.52-48.2,64.12-48.2,103.04,0,14.31,7.08,41.38,9.25,49.33.06.24.11.39.12.45,7.94,30.68,27.58,58.52,55.32,78.39,13.84,9.92,29.31,17.64,45.96,22.96,17.23,5.5,35.34,8.3,53.82,8.3,35.27,0,68.69-10.05,96.63-29.06,27.06-18.41,47.1-44.51,56.41-73.48,1.11-3.46,11.43-40.5,11.43-56.89,0-38.93-17.12-75.52-48.2-103.04-31.06-27.5-72.36-42.65-116.28-42.65h0Z"/><path class="cls-5" d="M245.6,103.89c21.87,0,43.09,3.79,63.06,11.27,19.28,7.22,36.58,17.55,51.44,30.71,14.84,13.14,26.49,28.44,34.62,45.46,8.41,17.61,12.67,36.31,12.67,55.58s-4.26,37.98-12.67,55.58c-8.13,17.03-19.78,32.32-34.62,45.46-14.86,13.16-32.17,23.49-51.44,30.71-19.97,7.48-41.19,11.27-63.06,11.27s-43.09-3.79-63.06-11.27c-19.28-7.22-36.58-17.55-51.44-30.71-14.84-13.14-26.49-28.44-34.62-45.46-8.41-17.61-12.67-36.31-12.67-55.58s4.26-37.98,12.67-55.58c8.13-17.03,19.78-32.32,34.62-45.46,14.86-13.16,32.17-23.49,51.44-30.71,19.97-7.48,41.19-11.27,63.06-11.27M245.6,101.76c-90.54,0-163.94,64.99-163.94,145.17s73.4,145.17,163.94,145.17,163.94-64.99,163.94-145.17-73.4-145.17-163.94-145.17h0Z"/><path class="cls-1" d="M245.6,101.76c-90.54,0-163.94,64.99-163.94,145.17s73.4,145.17,163.94,145.17,163.94-64.99,163.94-145.17-73.4-145.17-163.94-145.17h0Z"/><path class="cls-10" d="M96.84,259.43c-.13-37.48,18.93-73.36,47.66-96.91,57.64-48.1,149.36-47.07,205.99,2.16,28.28,24.03,46.6,60.23,45.91,97.65.36-37.19-17.77-73.47-46.18-97.34-42.36-36.48-104.36-46.59-156.89-28.57-52.91,17.15-95.99,66.13-96.49,123h0Z"/><path class="cls-10" d="M96.84,259.43c-.13-37.48,18.93-73.36,47.66-96.91,57.64-48.1,149.36-47.07,205.99,2.16,28.28,24.03,46.6,60.23,45.91,97.65.36-37.19-17.77-73.47-46.18-97.34-42.36-36.48-104.36-46.59-156.89-28.57-52.91,17.15-95.99,66.13-96.49,123h0Z"/><g class="cls-9"><path class="cls-8" d="M222.18,228.57s1.1.77,1.6,2.64.99,1.98.72,3.86-1.65,5.45-2.15,5.73,1.21.88,1.38.88.88-2.59,1.32-3.47.94-3.2,1.54-3.86,3.36-1.27,5.01-2.75,2.15-2.04,3.91-2.04,10.3-.28,11.29-.22,1.76.88,1.76.88c0,0-.61-1.16-1.1-1.87s-.39-1.43-1.27-1.16-8.37.77-10.85.72-7-1.49-8.65-1.27-2.97.17-4.41.17-2.04.39-2.04.55-.22,1.1-.22,1.32.99-.66,2.15-.11Z"/><ellipse class="cls-16" cx="227.21" cy="229.87" rx="1.69" ry="1.76"/><path class="cls-8" d="M310.77,171.05s1.1.77,1.6,2.64.99,1.98.72,3.86-1.65,5.45-2.15,5.73,1.21.88,1.38.88.88-2.59,1.32-3.47.94-3.2,1.54-3.86,3.36-1.27,5.01-2.75,2.15-2.04,3.91-2.04,10.3-.28,11.29-.22,1.76.88,1.76.88c0,0-.61-1.16-1.1-1.87s-.39-1.43-1.27-1.16-8.37.77-10.85.72-7-1.49-8.65-1.27-2.97.17-4.41.17-2.04.39-2.04.55-.22,1.1-.22,1.32.99-.66,2.15-.11Z"/><ellipse class="cls-16" cx="315.8" cy="172.36" rx="1.69" ry="1.76"/><path class="cls-8" d="M206.26,181.53s-.15,1.34-1.57,2.66-1.27,1.82-3.05,2.46-5.58,1.14-6.06.84-.2,1.49-.12,1.63,2.7-.46,3.68-.49,3.26-.7,4.13-.48,2.71,2.35,4.81,3.1,2.82.92,3.65,2.47,5.14,8.93,5.57,9.83.06,1.97.06,1.97c0,0,.73-1.08,1.12-1.86s1.08-1.02.41-1.66-4.66-7-5.79-9.2-2.02-6.86-3-8.21-1.56-2.54-2.24-3.8-1.31-1.61-1.45-1.53-1.07.33-1.27.44,1.05.56,1.12,1.84Z"/><ellipse class="cls-16" cx="207.51" cy="186.58" rx="1.76" ry="1.69" transform="translate(-63.78 121.21) rotate(-28.41)"/><path class="cls-8" d="M279.47,202.34s1.1.77,1.6,2.64.99,1.98.72,3.86-1.65,5.45-2.15,5.73,1.21.88,1.38.88.88-2.59,1.32-3.47.94-3.2,1.54-3.86,3.36-1.27,5.01-2.75,2.15-2.04,3.91-2.04,10.3-.28,11.29-.22,1.76.88,1.76.88c0,0-.61-1.16-1.1-1.87s-.39-1.43-1.27-1.16-8.37.77-10.85.72-7-1.49-8.65-1.27-2.97.17-4.41.17-2.04.39-2.04.55-.22,1.1-.22,1.32.99-.66,2.15-.11Z"/><ellipse class="cls-16" cx="284.51" cy="203.65" rx="1.69" ry="1.76"/><path class="cls-8" d="M276.02,217.11s1.1.77,1.6,2.64.99,1.98.72,3.86-1.65,5.45-2.15,5.73,1.21.88,1.38.88.88-2.59,1.32-3.47.94-3.2,1.54-3.86,3.36-1.27,5.01-2.75,2.15-2.04,3.91-2.04,10.3-.28,11.29-.22,1.76.88,1.76.88c0,0-.61-1.16-1.1-1.87s-.39-1.43-1.27-1.16-8.37.77-10.85.72-7-1.49-8.65-1.27-2.97.17-4.41.17-2.04.39-2.04.55-.22,1.1-.22,1.32.99-.66,2.15-.11Z"/><ellipse class="cls-16" cx="281.05" cy="218.41" rx="1.69" ry="1.76"/><path class="cls-8" d="M308.82,224.75s-1.3.33-3.04-.53-2.15-.55-3.38-1.99-3.04-4.82-2.92-5.38-1.46.34-1.57.46,1.38,2.36,1.76,3.27,1.8,2.8,1.9,3.69-1.25,3.37-1.2,5.59.13,2.96-1.02,4.29-6.54,7.96-7.23,8.68-1.82.75-1.82.75c0,0,1.27.3,2.14.4s1.33.65,1.7-.2,4.9-6.83,6.57-8.67,5.71-4.31,6.62-5.7,1.82-2.36,2.76-3.44,1.04-1.79.92-1.9-.69-.89-.85-1.03-.15,1.18-1.32,1.7Z"/><ellipse class="cls-16" cx="304.54" cy="227.7" rx="1.69" ry="1.76" transform="translate(-67.02 308.52) rotate(-49.06)"/><path class="cls-8" d="M235.84,241.57s1.38.06,2.09.94,4.57.44,6.45.88,3.53.11,4.13,1.54.83,2.09.55,2.7-1.71,1.05-1.71,1.05c0,0,.17.55.66.88s1.05,1.16,1.38.5.11-1.1.5-1.27,1.05.39,1.05-.5-.06-2.64,1.49-3.53,5.62-3.64,7.05-4.68,4.08-2.31,4.08-2.31c0,0,.11-.77-.17-.77s-5.62.88-7,.61-1.82-.44-2.15-1.65,0-1.98-.44-1.98-.99-.55-1.27.33-.28,1.82-.28,2.15-1.21,2.92-3.03,3.42-4.96,1.21-7.66.83-3.8-.28-4.3-1.54-.83-2.26-1.21-1.6-.22,4.02-.22,4.02Z"/><ellipse class="cls-16" cx="251.93" cy="242.47" rx="1.36" ry="1.43"/><path class="cls-8" d="M281.84,224.76s-3.58,3.03-5.51,3.58-8.04,4.19-9.37,5.18-1.82,1.82-4.19,2.42-4.79.72-5.51.66-1.82-.33-2.09-.33-.66,1.71-.5,2.09,3.31.11,4.74.33,1.54,1.98.77,2.53.94,1.32,1.76.99.44-2.7,2.42-3.58,7.11-1.6,8.59-1.87,3.8-4.08,5.12-5.07,3.14-3.03,4.08-4.19,2.53-1.43,2.2-1.71-2.53-1.05-2.53-1.05Z"/><ellipse class="cls-16" cx="271.76" cy="234.28" rx="1.95" ry="1.54"/><path class="cls-8" d="M328.85,205.01s-3.58,3.03-5.51,3.58-8.04,4.19-9.37,5.18-1.82,1.82-4.19,2.42-4.79.72-5.51.66-1.82-.33-2.09-.33-.66,1.71-.5,2.09,3.31.11,4.74.33,1.54,1.98.77,2.53.94,1.32,1.76.99.44-2.7,2.42-3.58,7.11-1.6,8.59-1.87,3.8-4.08,5.12-5.07,3.14-3.03,4.08-4.19,2.53-1.43,2.2-1.71-2.53-1.05-2.53-1.05Z"/><ellipse class="cls-16" cx="318.77" cy="214.52" rx="1.95" ry="1.54"/><path class="cls-8" d="M284.1,232.42c2.26,1.38,3.64,5.62,3.69,6.78s.28,4.63-.66,6.34-3.47,3.58-4.02,3.86,1.1,1.32,1.98,1.32,1.43-.55,2.42-1.49,3.09-.77,3.25-.77,1.98.88,1.87.17-.66-1.71-1.71-3.42-.61-5.56.44-6.5,2.59-2.26,2.53-2.75-4.19-5.18-5.62-6.12-.61-2.48-2.64-1.76-3.36,2.37-3.58,3.2,2.04,1.16,2.04,1.16Z"/><ellipse class="cls-16" cx="289.68" cy="235.42" rx="1.73" ry="1.65"/><path class="cls-8" d="M287.48,208.11c2.26,1.38,3.64,5.62,3.69,6.78s.28,4.63-.66,6.34-3.47,3.58-4.02,3.86,1.1,1.32,1.98,1.32,1.43-.55,2.42-1.49,3.09-.77,3.25-.77,1.98.88,1.87.17-.66-1.71-1.71-3.42-.61-5.56.44-6.5,2.59-2.26,2.53-2.75-4.19-5.18-5.62-6.12-.61-2.48-2.64-1.76-3.36,2.37-3.58,3.2,2.04,1.16,2.04,1.16Z"/><ellipse class="cls-16" cx="293.06" cy="211.1" rx="1.73" ry="1.65"/><path class="cls-8" d="M258.33,263.1s.76-1.61.41-2.42-1.94-3.27-1.71-4.2-.85-2.83,1.42-5.02,6.83-5.02,7.94-6.74-1.45-2.41-1.83-4.55-3.55-.01-4.25,1.15-3.02,6.58-3.02,7.75-1.73,4.77-2.65,5.7-2.32,1.63-2.32,1.63c0,0,.66,2.23,1.21,1.48s1.37-1.33,1.71-1.21,2.52,4.54,2.39,4.73.68,1.69.68,1.69Z"/><ellipse class="cls-16" cx="262.65" cy="244.38" rx="1.51" ry="1.62" transform="translate(-51.65 417.36) rotate(-71.76)"/><path class="cls-8" d="M246.02,246.91s-.22,1.76.37,2.42,2.86,2.5,2.94,3.45,1.69,2.42.22,5.22-4.92,6.9-5.44,8.89,2.13,1.84,3.16,3.75,3.38-1.1,3.67-2.42.81-7.2.44-8.3.15-5.07.73-6.24,1.69-2.28,1.69-2.28c0,0-1.32-1.91-1.62-1.03s-.88,1.69-1.25,1.69-3.82-3.53-3.75-3.75-1.18-1.4-1.18-1.4Z"/><ellipse class="cls-16" cx="247.78" cy="266.05" rx="1.62" ry="1.51"/><path class="cls-8" d="M250.2,162.73s-.22,1.76.37,2.42,2.86,2.5,2.94,3.45,1.69,2.42.22,5.22c-1.47,2.79-4.92,6.9-5.44,8.89s2.13,1.84,3.16,3.75,3.38-1.1,3.67-2.42.81-7.2.44-8.3.15-5.07.73-6.24,1.69-2.28,1.69-2.28c0,0-1.32-1.91-1.62-1.03s-.88,1.69-1.25,1.69-3.82-3.53-3.75-3.75-1.18-1.4-1.18-1.4Z"/><ellipse class="cls-16" cx="251.97" cy="181.87" rx="1.62" ry="1.51"/><path class="cls-8" d="M240.45,243.15s-1.7-.52-2.45-.05-2.95,2.4-3.9,2.31-2.68,1.25-5.18-.67c-2.5-1.92-5.97-6.02-7.84-6.86s-2.17,1.79-4.23,2.48.51,3.52,1.77,4.03,6.96,2.02,8.11,1.84,4.97,1,6.03,1.78,1.96,2.05,1.96,2.05c0,0,2.11-.98,1.29-1.42s-1.52-1.16-1.45-1.52,4.12-3.17,4.33-3.06,1.57-.92,1.57-.92Z"/><ellipse class="cls-16" cx="221.3" cy="241.64" rx="1.62" ry="1.51" transform="translate(-54.36 418.77) rotate(-80.24)"/><path class="cls-8" d="M253.18,184.55s-.22,1.76.37,2.42,2.86,2.5,2.94,3.45,1.69,2.42.22,5.22-4.92,6.9-5.44,8.89,2.13,1.84,3.16,3.75,3.38-1.1,3.67-2.42.81-7.2.44-8.3.15-5.07.73-6.24,1.69-2.28,1.69-2.28c0,0-1.32-1.91-1.62-1.03s-.88,1.69-1.25,1.69-3.82-3.53-3.75-3.75-1.18-1.4-1.18-1.4Z"/><ellipse class="cls-16" cx="254.94" cy="203.68" rx="1.62" ry="1.51"/><path class="cls-8" d="M271.47,194.46s-.22,1.76.37,2.42,2.86,2.5,2.94,3.45,1.69,2.42.22,5.22-4.92,6.9-5.44,8.89,2.13,1.84,3.16,3.75,3.38-1.1,3.67-2.42.81-7.2.44-8.3.15-5.07.73-6.24,1.69-2.28,1.69-2.28c0,0-1.32-1.91-1.62-1.03s-.88,1.69-1.25,1.69-3.82-3.53-3.75-3.75-1.18-1.4-1.18-1.4Z"/><ellipse class="cls-16" cx="273.23" cy="213.6" rx="1.62" ry="1.51"/><path class="cls-8" d="M296.26,199.97s-.22,1.76.37,2.42,2.86,2.5,2.94,3.45,1.69,2.42.22,5.22-4.92,6.9-5.44,8.89,2.13,1.84,3.16,3.75,3.38-1.1,3.67-2.42.81-7.2.44-8.3.15-5.07.73-6.24,1.69-2.28,1.69-2.28c0,0-1.32-1.91-1.62-1.03s-.88,1.69-1.25,1.69-3.82-3.53-3.75-3.75-1.18-1.4-1.18-1.4Z"/><ellipse class="cls-16" cx="298.02" cy="219.11" rx="1.62" ry="1.51"/><path class="cls-8" d="M274.63,234.35s.07,7.64.15,11.46c.07,3.82-1.47,7.57-2.13,8.81s-1.25,4.04-3.97,4.85-3.38,1.98-6.1,1.47-3.82-1.69-4.85-1.69-5.51-2.06-6.02-2.06-.95,1.4-.95,1.4c0,0,5.29,1.47,6.24,1.98s7.27,2.13,8.15,2.28,6.46.44,7.35.81,1.98,1.69,2.86,4.11,1.1,2.5,1.84,2.5.66-1.54-.44-2.13-2.06-2.86-1.54-4.48,3.09-3.01,3.09-3.01c0,0-.73-6.39-1.1-7.71s-.59-5.8-.95-9.4-.44-7.93-.15-8.67-1.47-.51-1.47-.51Z"/><ellipse class="cls-16" cx="274.3" cy="258.92" rx="1.8" ry="1.65"/><path class="cls-8" d="M247.74,182.68s.07,7.64.15,11.46-1.47,7.57-2.13,8.81-1.25,4.04-3.97,4.85-3.38,1.98-6.1,1.47-3.82-1.69-4.85-1.69-5.51-2.06-6.02-2.06-.95,1.4-.95,1.4c0,0,5.29,1.47,6.24,1.98s7.27,2.13,8.15,2.28,6.46.44,7.35.81,1.98,1.69,2.86,4.11,1.1,2.5,1.84,2.5.66-1.54-.44-2.13-2.06-2.86-1.54-4.48,3.09-3.01,3.09-3.01c0,0-.73-6.39-1.1-7.71s-.59-5.8-.95-9.4c-.37-3.6-.44-7.93-.15-8.67s-1.47-.51-1.47-.51Z"/><ellipse class="cls-16" cx="247.41" cy="207.25" rx="1.8" ry="1.65"/><path class="cls-8" d="M243.31,241.73s3.07-6.99,4.58-10.51,4.45-6.29,5.57-7.16,2.8-3.17,5.61-2.79,3.9-.42,6.16,1.17,2.79,3.11,3.72,3.53,4.18,4.14,4.64,4.35,1.44-.88,1.44-.88c0,0-4.22-3.51-4.88-4.37s-5.75-4.93-6.5-5.43-5.71-3.06-6.36-3.76-1.11-2.36-.92-4.93.02-2.73-.65-3.03-1.24,1.13-.47,2.12.7,3.46-.44,4.72-4.05,1.48-4.05,1.48c0,0-1.96,6.13-2.17,7.48s-1.85,5.53-3,8.96c-1.15,3.43-2.86,7.41-3.43,7.96s1.13,1.07,1.13,1.07Z"/><ellipse class="cls-16" cx="253.72" cy="219.47" rx="1.65" ry="1.8" transform="translate(-50.66 360.51) rotate(-65.72)"/><path class="cls-8" d="M229.8,168.27s3.07-6.99,4.58-10.51,4.45-6.29,5.57-7.16,2.8-3.17,5.61-2.79,3.9-.42,6.16,1.17,2.79,3.11,3.72,3.53,4.18,4.14,4.64,4.35,1.44-.88,1.44-.88c0,0-4.22-3.51-4.88-4.37s-5.75-4.93-6.5-5.43-5.71-3.06-6.36-3.76-1.11-2.36-.92-4.93.02-2.73-.65-3.03-1.24,1.13-.47,2.12.7,3.46-.44,4.72-4.05,1.48-4.05,1.48c0,0-1.96,6.13-2.17,7.48s-1.85,5.53-3,8.96c-1.15,3.43-2.86,7.41-3.43,7.96s1.13,1.07,1.13,1.07Z"/><ellipse class="cls-16" cx="240.2" cy="146.01" rx="1.65" ry="1.8" transform="translate(8.34 304.94) rotate(-65.72)"/><path class="cls-8" d="M279.75,166.39s-.24,7.64-.32,11.46c-.08,3.82-1.77,7.5-2.49,8.72s-1.41,3.99-4.16,4.68-3.46,1.84-6.15,1.22-3.75-1.84-4.78-1.88-5.42-2.28-5.93-2.3-1.01,1.36-1.01,1.36c0,0,5.22,1.68,6.16,2.23s7.18,2.42,8.05,2.61,6.44.7,7.31,1.11,1.91,1.77,2.7,4.23,1,2.54,1.73,2.57.72-1.51-.35-2.15-1.94-2.95-1.36-4.54,3.2-2.88,3.2-2.88c0,0-.47-6.42-.79-7.75s-.35-5.82-.57-9.43c-.22-3.61-.12-7.94.2-8.67s-1.45-.57-1.45-.57Z"/><ellipse class="cls-16" cx="278.43" cy="190.93" rx="1.65" ry="1.8" transform="translate(76.37 461.38) rotate(-87.68)"/><path class="cls-8" d="M320.13,173.9s1.87,7.41,2.84,11.1c.97,3.69.36,7.7,0,9.07s-.26,4.22-2.71,5.65-2.82,2.72-5.58,2.87-4.11-.74-5.11-.5-5.84-.7-6.34-.58-.6,1.58-.6,1.58c0,0,5.49.18,6.54.46s7.57.36,8.46.29,6.39-1.1,7.33-.95,2.33,1.17,3.75,3.32,1.66,2.17,2.37,1.99.28-1.65-.93-1.97-2.67-2.3-2.56-3.99,2.29-3.65,2.29-3.65c0,0-2.22-6.04-2.89-7.24s-1.94-5.5-3.14-8.91-2.3-7.61-2.19-8.39-1.55-.15-1.55-.15Z"/><ellipse class="cls-16" cx="325.6" cy="197.85" rx="1.8" ry="1.65" transform="translate(-37.47 82.36) rotate(-13.64)"/><path class="cls-8" d="M323.29,212.46s.07,7.64.15,11.46c.07,3.82-1.47,7.57-2.13,8.81s-1.25,4.04-3.97,4.85-3.38,1.98-6.1,1.47-3.82-1.69-4.85-1.69-5.51-2.06-6.02-2.06-.95,1.4-.95,1.4c0,0,5.29,1.47,6.24,1.98s7.27,2.13,8.15,2.28,6.46.44,7.35.81,1.98,1.69,2.86,4.11,1.1,2.5,1.84,2.5.66-1.54-.44-2.13-2.06-2.86-1.54-4.48,3.09-3.01,3.09-3.01c0,0-.73-6.39-1.1-7.71s-.59-5.8-.95-9.4c-.37-3.6-.44-7.93-.15-8.67s-1.47-.51-1.47-.51Z"/><ellipse class="cls-16" cx="322.96" cy="237.03" rx="1.8" ry="1.65"/><path class="cls-8" d="M294.46,201.02s1.1.77,1.6,2.64.99,1.98.72,3.86-1.65,5.45-2.15,5.73,1.21.88,1.38.88.88-2.59,1.32-3.47.94-3.2,1.54-3.86,3.36-1.27,5.01-2.75,2.15-2.04,3.91-2.04,10.3-.28,11.29-.22,1.76.88,1.76.88c0,0-.61-1.16-1.1-1.87s-.39-1.43-1.27-1.16-8.37.77-10.85.72-7-1.49-8.65-1.27-2.97.17-4.41.17-2.04.39-2.04.55-.22,1.1-.22,1.32.99-.66,2.15-.11Z"/><ellipse class="cls-16" cx="299.49" cy="202.32" rx="1.69" ry="1.76"/><path class="cls-8" d="M120.06,230.67s1.1.77,1.6,2.64.99,1.98.72,3.86-1.65,5.45-2.15,5.73,1.21.88,1.38.88.88-2.59,1.32-3.47.94-3.2,1.54-3.86,3.36-1.27,5.01-2.75,2.15-2.04,3.91-2.04,10.3-.28,11.29-.22,1.76.88,1.76.88c0,0-.61-1.16-1.1-1.87s-.39-1.43-1.27-1.16-8.37.77-10.85.72-7-1.49-8.65-1.27-2.97.17-4.41.17-2.04.39-2.04.55-.22,1.1-.22,1.32.99-.66,2.15-.11Z"/><ellipse class="cls-16" cx="125.09" cy="231.98" rx="1.69" ry="1.76"/><path class="cls-8" d="M208.64,173.16s1.1.77,1.6,2.64.99,1.98.72,3.86-1.65,5.45-2.15,5.73,1.21.88,1.38.88.88-2.59,1.32-3.47.94-3.2,1.54-3.86,3.36-1.27,5.01-2.75,2.15-2.04,3.91-2.04,10.3-.28,11.29-.22,1.76.88,1.76.88c0,0-.61-1.16-1.1-1.87s-.39-1.43-1.27-1.16-8.37.77-10.85.72-7-1.49-8.65-1.27-2.97.17-4.41.17-2.04.39-2.04.55-.22,1.1-.22,1.32.99-.66,2.15-.11Z"/><ellipse class="cls-16" cx="213.67" cy="174.46" rx="1.69" ry="1.76"/><path class="cls-8" d="M177.35,204.45s1.1.77,1.6,2.64.99,1.98.72,3.86-1.65,5.45-2.15,5.73,1.21.88,1.38.88.88-2.59,1.32-3.47.94-3.2,1.54-3.86,3.36-1.27,5.01-2.75,2.15-2.04,3.91-2.04,10.3-.28,11.29-.22,1.76.88,1.76.88c0,0-.61-1.16-1.1-1.87s-.39-1.43-1.27-1.16-8.37.77-10.85.72-7-1.49-8.65-1.27-2.97.17-4.41.17-2.04.39-2.04.55-.22,1.1-.22,1.32.99-.66,2.15-.11Z"/><ellipse class="cls-16" cx="182.38" cy="205.75" rx="1.69" ry="1.76"/><path class="cls-8" d="M173.9,219.21s1.1.77,1.6,2.64.99,1.98.72,3.86-1.65,5.45-2.15,5.73,1.21.88,1.38.88.88-2.59,1.32-3.47.94-3.2,1.54-3.86,3.36-1.27,5.01-2.75,2.15-2.04,3.91-2.04,10.3-.28,11.29-.22,1.76.88,1.76.88c0,0-.61-1.16-1.1-1.87s-.39-1.43-1.27-1.16-8.37.77-10.85.72-7-1.49-8.65-1.27-2.97.17-4.41.17-2.04.39-2.04.55-.22,1.1-.22,1.32.99-.66,2.15-.11Z"/><ellipse class="cls-16" cx="178.93" cy="220.52" rx="1.69" ry="1.76"/><path class="cls-8" d="M206.7,226.86s-1.3.33-3.04-.53-2.15-.55-3.38-1.99-3.04-4.82-2.92-5.38-1.46.34-1.57.46,1.38,2.36,1.76,3.27,1.8,2.8,1.9,3.69-1.25,3.37-1.2,5.59.13,2.96-1.02,4.29-6.54,7.96-7.23,8.68-1.82.75-1.82.75c0,0,1.27.3,2.14.4s1.33.65,1.7-.2,4.9-6.83,6.57-8.67,5.71-4.31,6.62-5.7,1.82-2.36,2.76-3.44,1.04-1.79.92-1.9-.69-.89-.85-1.03-.15,1.18-1.32,1.7Z"/><ellipse class="cls-16" cx="202.41" cy="229.81" rx="1.69" ry="1.76" transform="translate(-103.82 232.11) rotate(-49.06)"/><path class="cls-8" d="M133.72,243.67s1.38.06,2.09.94,4.57.44,6.45.88,3.53.11,4.13,1.54.83,2.09.55,2.7-1.71,1.05-1.71,1.05c0,0,.17.55.66.88s1.05,1.16,1.38.5.11-1.1.5-1.27,1.05.39,1.05-.5-.06-2.64,1.49-3.53,5.62-3.64,7.05-4.68,4.08-2.31,4.08-2.31c0,0,.11-.77-.17-.77s-5.62.88-7,.61-1.82-.44-2.15-1.65,0-1.98-.44-1.98-.99-.55-1.27.33-.28,1.82-.28,2.15-1.21,2.92-3.03,3.42-4.96,1.21-7.66.83c-2.7-.39-3.8-.28-4.3-1.54s-.83-2.26-1.21-1.6-.22,4.02-.22,4.02Z"/><ellipse class="cls-16" cx="149.8" cy="244.57" rx="1.36" ry="1.43"/><path class="cls-8" d="M179.72,226.87s-3.58,3.03-5.51,3.58-8.04,4.19-9.37,5.18-1.82,1.82-4.19,2.42-4.79.72-5.51.66-1.82-.33-2.09-.33-.66,1.71-.5,2.09,3.31.11,4.74.33,1.54,1.98.77,2.53.94,1.32,1.76.99.44-2.7,2.42-3.58,7.11-1.6,8.59-1.87,3.8-4.08,5.12-5.07,3.14-3.03,4.08-4.19,2.53-1.43,2.2-1.71-2.53-1.05-2.53-1.05Z"/><ellipse class="cls-16" cx="169.64" cy="236.38" rx="1.95" ry="1.54"/><path class="cls-8" d="M226.73,207.11s-3.58,3.03-5.51,3.58-8.04,4.19-9.37,5.18-1.82,1.82-4.19,2.42-4.79.72-5.51.66-1.82-.33-2.09-.33-.66,1.71-.5,2.09,3.31.11,4.74.33,1.54,1.98.77,2.53.94,1.32,1.76.99.44-2.7,2.42-3.58,7.11-1.6,8.59-1.87,3.8-4.08,5.12-5.07,3.14-3.03,4.08-4.19,2.53-1.43,2.2-1.71-2.53-1.05-2.53-1.05Z"/><ellipse class="cls-16" cx="216.65" cy="216.63" rx="1.95" ry="1.54"/><path class="cls-8" d="M181.98,234.53c2.26,1.38,3.64,5.62,3.69,6.78s.28,4.63-.66,6.34-3.47,3.58-4.02,3.86,1.1,1.32,1.98,1.32,1.43-.55,2.42-1.49,3.09-.77,3.25-.77,1.98.88,1.87.17-.66-1.71-1.71-3.42-.61-5.56.44-6.5,2.59-2.26,2.53-2.75-4.19-5.18-5.62-6.12-.61-2.48-2.64-1.76-3.36,2.37-3.58,3.2,2.04,1.16,2.04,1.16Z"/><ellipse class="cls-16" cx="187.56" cy="237.52" rx="1.73" ry="1.65"/><path class="cls-8" d="M185.36,210.22c2.26,1.38,3.64,5.62,3.69,6.78s.28,4.63-.66,6.34-3.47,3.58-4.02,3.86,1.1,1.32,1.98,1.32,1.43-.55,2.42-1.49,3.09-.77,3.25-.77,1.98.88,1.87.17-.66-1.71-1.71-3.42-.61-5.56.44-6.5,2.59-2.26,2.53-2.75-4.19-5.18-5.62-6.12-.61-2.48-2.64-1.76-3.36,2.37-3.58,3.2,2.04,1.16,2.04,1.16Z"/><ellipse class="cls-16" cx="190.94" cy="213.21" rx="1.73" ry="1.65"/><path class="cls-8" d="M156.21,265.21s.76-1.61.41-2.42-1.94-3.27-1.71-4.2-.85-2.83,1.42-5.02,6.83-5.02,7.94-6.74-1.45-2.41-1.83-4.55-3.55-.01-4.25,1.15-3.02,6.58-3.02,7.75-1.73,4.77-2.65,5.7-2.32,1.63-2.32,1.63c0,0,.66,2.23,1.21,1.48s1.37-1.33,1.71-1.21,2.52,4.54,2.39,4.73.68,1.69.68,1.69Z"/><ellipse class="cls-16" cx="160.52" cy="246.49" rx="1.51" ry="1.62" transform="translate(-123.82 321.82) rotate(-71.76)"/><path class="cls-8" d="M143.89,249.02s-.22,1.76.37,2.42,2.86,2.5,2.94,3.45,1.69,2.42.22,5.22-4.92,6.9-5.44,8.89,2.13,1.84,3.16,3.75,3.38-1.1,3.67-2.42.81-7.2.44-8.3.15-5.07.73-6.24,1.69-2.28,1.69-2.28c0,0-1.32-1.91-1.62-1.03s-.88,1.69-1.25,1.69-3.82-3.53-3.75-3.75-1.18-1.4-1.18-1.4Z"/><ellipse class="cls-16" cx="145.65" cy="268.15" rx="1.62" ry="1.51"/><path class="cls-8" d="M148.08,164.84s-.22,1.76.37,2.42,2.86,2.5,2.94,3.45,1.69,2.42.22,5.22-4.92,6.9-5.44,8.89,2.13,1.84,3.16,3.75,3.38-1.1,3.67-2.42.81-7.2.44-8.3.15-5.07.73-6.24,1.69-2.28,1.69-2.28c0,0-1.32-1.91-1.62-1.03s-.88,1.69-1.25,1.69-3.82-3.53-3.75-3.75-1.18-1.4-1.18-1.4Z"/><ellipse class="cls-16" cx="149.84" cy="183.98" rx="1.62" ry="1.51"/><path class="cls-8" d="M138.33,245.25s-1.7-.52-2.45-.05-2.95,2.4-3.9,2.31-2.68,1.25-5.18-.67c-2.5-1.92-5.97-6.02-7.84-6.86-1.87-.84-2.17,1.79-4.23,2.48s.51,3.52,1.77,4.03,6.96,2.02,8.11,1.84,4.97,1,6.03,1.78,1.96,2.05,1.96,2.05c0,0,2.11-.98,1.29-1.42s-1.52-1.16-1.45-1.52,4.12-3.17,4.33-3.06,1.57-.92,1.57-.92Z"/><ellipse class="cls-16" cx="119.17" cy="243.75" rx="1.62" ry="1.51" transform="translate(-141.25 319.87) rotate(-80.24)"/><path class="cls-8" d="M151.05,186.66s-.22,1.76.37,2.42,2.86,2.5,2.94,3.45,1.69,2.42.22,5.22-4.92,6.9-5.44,8.89,2.13,1.84,3.16,3.75,3.38-1.1,3.67-2.42.81-7.2.44-8.3.15-5.07.73-6.24,1.69-2.28,1.69-2.28c0,0-1.32-1.91-1.62-1.03s-.88,1.69-1.25,1.69-3.82-3.53-3.75-3.75-1.18-1.4-1.18-1.4Z"/><ellipse class="cls-16" cx="152.82" cy="205.79" rx="1.62" ry="1.51"/><path class="cls-8" d="M169.34,196.57s-.22,1.76.37,2.42,2.86,2.5,2.94,3.45,1.69,2.42.22,5.22-4.92,6.9-5.44,8.89,2.13,1.84,3.16,3.75,3.38-1.1,3.67-2.42.81-7.2.44-8.3.15-5.07.73-6.24,1.69-2.28,1.69-2.28c0,0-1.32-1.91-1.62-1.03s-.88,1.69-1.25,1.69-3.82-3.53-3.75-3.75-1.18-1.4-1.18-1.4Z"/><ellipse class="cls-16" cx="171.11" cy="215.71" rx="1.62" ry="1.51"/><path class="cls-8" d="M194.13,202.08s-.22,1.76.37,2.42,2.86,2.5,2.94,3.45,1.69,2.42.22,5.22-4.92,6.9-5.44,8.89,2.13,1.84,3.16,3.75,3.38-1.1,3.67-2.42.81-7.2.44-8.3.15-5.07.73-6.24,1.69-2.28,1.69-2.28c0,0-1.32-1.91-1.62-1.03s-.88,1.69-1.25,1.69-3.82-3.53-3.75-3.75-1.18-1.4-1.18-1.4Z"/><ellipse class="cls-16" cx="195.9" cy="221.22" rx="1.62" ry="1.51"/><path class="cls-8" d="M172.5,236.46s.07,7.64.15,11.46-1.47,7.57-2.13,8.81-1.25,4.04-3.97,4.85-3.38,1.98-6.1,1.47-3.82-1.69-4.85-1.69-5.51-2.06-6.02-2.06-.95,1.4-.95,1.4c0,0,5.29,1.47,6.24,1.98s7.27,2.13,8.15,2.28,6.46.44,7.35.81,1.98,1.69,2.86,4.11,1.1,2.5,1.84,2.5.66-1.54-.44-2.13-2.06-2.86-1.54-4.48,3.09-3.01,3.09-3.01c0,0-.73-6.39-1.1-7.71s-.59-5.8-.95-9.4-.44-7.93-.15-8.67-1.47-.51-1.47-.51Z"/><ellipse class="cls-16" cx="172.17" cy="261.03" rx="1.8" ry="1.65"/><path class="cls-8" d="M145.62,184.78s.07,7.64.15,11.46-1.47,7.57-2.13,8.81-1.25,4.04-3.97,4.85-3.38,1.98-6.1,1.47-3.82-1.69-4.85-1.69-5.51-2.06-6.02-2.06-.95,1.4-.95,1.4c0,0,5.29,1.47,6.24,1.98s7.27,2.13,8.15,2.28,6.46.44,7.35.81,1.98,1.69,2.86,4.11,1.1,2.5,1.84,2.5.66-1.54-.44-2.13-2.06-2.86-1.54-4.48,3.09-3.01,3.09-3.01c0,0-.73-6.39-1.1-7.71s-.59-5.8-.95-9.4-.44-7.93-.15-8.67-1.47-.51-1.47-.51Z"/><ellipse class="cls-16" cx="145.29" cy="209.35" rx="1.8" ry="1.65"/><path class="cls-8" d="M141.19,243.84s3.07-6.99,4.58-10.51,4.45-6.29,5.57-7.16,2.8-3.17,5.61-2.79,3.9-.42,6.16,1.17,2.79,3.11,3.72,3.53,4.18,4.14,4.64,4.35,1.44-.88,1.44-.88c0,0-4.22-3.51-4.88-4.37s-5.75-4.93-6.5-5.43-5.71-3.06-6.36-3.76-1.11-2.36-.92-4.93.02-2.73-.65-3.03-1.24,1.13-.47,2.12.7,3.46-.44,4.72-4.05,1.48-4.05,1.48c0,0-1.96,6.13-2.17,7.48s-1.85,5.53-3,8.96-2.86,7.41-3.43,7.96,1.13,1.07,1.13,1.07Z"/><ellipse class="cls-16" cx="151.59" cy="221.57" rx="1.65" ry="1.8" transform="translate(-112.71 268.66) rotate(-65.72)"/><path class="cls-8" d="M177.63,168.5s-.24,7.64-.32,11.46c-.08,3.82-1.77,7.5-2.49,8.72s-1.41,3.99-4.16,4.68-3.46,1.84-6.15,1.22-3.75-1.84-4.78-1.88-5.42-2.28-5.93-2.3-1.01,1.36-1.01,1.36c0,0,5.22,1.68,6.16,2.23s7.18,2.42,8.05,2.61,6.44.7,7.31,1.11,1.91,1.77,2.7,4.23,1,2.54,1.73,2.57.72-1.51-.35-2.15-1.94-2.95-1.36-4.54,3.2-2.88,3.2-2.88c0,0-.47-6.42-.79-7.75s-.35-5.82-.57-9.43c-.22-3.61-.12-7.94.2-8.67s-1.45-.57-1.45-.57Z"/><ellipse class="cls-16" cx="176.3" cy="193.03" rx="1.65" ry="1.8" transform="translate(-23.72 361.36) rotate(-87.68)"/><path class="cls-8" d="M218.01,176s1.87,7.41,2.84,11.1c.97,3.69.36,7.7,0,9.07s-.26,4.22-2.71,5.65-2.82,2.72-5.58,2.87-4.11-.74-5.11-.5-5.84-.7-6.34-.58-.6,1.58-.6,1.58c0,0,5.49.18,6.54.46s7.57.36,8.46.29,6.39-1.1,7.33-.95,2.33,1.17,3.75,3.32,1.66,2.17,2.37,1.99.28-1.65-.93-1.97-2.67-2.3-2.56-3.99,2.29-3.65,2.29-3.65c0,0-2.22-6.04-2.89-7.24s-1.94-5.5-3.14-8.91-2.3-7.61-2.19-8.39-1.55-.15-1.55-.15Z"/><ellipse class="cls-16" cx="223.48" cy="199.96" rx="1.8" ry="1.65" transform="translate(-40.85 58.34) rotate(-13.64)"/><path class="cls-8" d="M221.16,214.57s.07,7.64.15,11.46c.07,3.82-1.47,7.57-2.13,8.81s-1.25,4.04-3.97,4.85-3.38,1.98-6.1,1.47-3.82-1.69-4.85-1.69-5.51-2.06-6.02-2.06-.95,1.4-.95,1.4c0,0,5.29,1.47,6.24,1.98s7.27,2.13,8.15,2.28,6.46.44,7.35.81,1.98,1.69,2.86,4.11,1.1,2.5,1.84,2.5.66-1.54-.44-2.13-2.06-2.86-1.54-4.48,3.09-3.01,3.09-3.01c0,0-.73-6.39-1.1-7.71s-.59-5.8-.95-9.4c-.37-3.6-.44-7.93-.15-8.67s-1.47-.51-1.47-.51Z"/><ellipse class="cls-16" cx="220.83" cy="239.14" rx="1.8" ry="1.65"/><path class="cls-8" d="M192.33,203.13s1.1.77,1.6,2.64.99,1.98.72,3.86-1.65,5.45-2.15,5.73,1.21.88,1.38.88.88-2.59,1.32-3.47.94-3.2,1.54-3.86,3.36-1.27,5.01-2.75,2.15-2.04,3.91-2.04,10.3-.28,11.29-.22,1.76.88,1.76.88c0,0-.61-1.16-1.1-1.87s-.39-1.43-1.27-1.16-8.37.77-10.85.72-7-1.49-8.65-1.27-2.97.17-4.41.17-2.04.39-2.04.55-.22,1.1-.22,1.32.99-.66,2.15-.11Z"/><ellipse class="cls-16" cx="197.37" cy="204.43" rx="1.69" ry="1.76"/><path class="cls-8" d="M261.75,256.9s1.1.77,1.6,2.64.99,1.98.72,3.86-1.65,5.45-2.15,5.73,1.21.88,1.38.88.88-2.59,1.32-3.47.94-3.2,1.54-3.86,3.36-1.27,5.01-2.75,2.15-2.04,3.91-2.04,10.3-.28,11.29-.22,1.76.88,1.76.88c0,0-.61-1.16-1.1-1.87s-.39-1.43-1.27-1.16-8.37.77-10.85.72-7-1.49-8.65-1.27-2.97.17-4.41.17-2.04.39-2.04.55-.22,1.1-.22,1.32.99-.66,2.15-.11Z"/><ellipse class="cls-16" cx="266.78" cy="258.2" rx="1.69" ry="1.76"/><path class="cls-8" d="M350.33,199.38s1.1.77,1.6,2.64.99,1.98.72,3.86-1.65,5.45-2.15,5.73,1.21.88,1.38.88.88-2.59,1.32-3.47.94-3.2,1.54-3.86,3.36-1.27,5.01-2.75,2.15-2.04,3.91-2.04,10.3-.28,11.29-.22,1.76.88,1.76.88c0,0-.61-1.16-1.1-1.87s-.39-1.43-1.27-1.16-8.37.77-10.85.72-7-1.49-8.65-1.27-2.97.17-4.41.17-2.04.39-2.04.55-.22,1.1-.22,1.32.99-.66,2.15-.11Z"/><ellipse class="cls-16" cx="355.36" cy="200.69" rx="1.69" ry="1.76"/><path class="cls-8" d="M319.04,230.67s1.1.77,1.6,2.64.99,1.98.72,3.86-1.65,5.45-2.15,5.73,1.21.88,1.38.88.88-2.59,1.32-3.47.94-3.2,1.54-3.86,3.36-1.27,5.01-2.75,2.15-2.04,3.91-2.04,10.3-.28,11.29-.22,1.76.88,1.76.88c0,0-.61-1.16-1.1-1.87s-.39-1.43-1.27-1.16-8.37.77-10.85.72-7-1.49-8.65-1.27-2.97.17-4.41.17-2.04.39-2.04.55-.22,1.1-.22,1.32.99-.66,2.15-.11Z"/><ellipse class="cls-16" cx="324.07" cy="231.98" rx="1.69" ry="1.76"/><path class="cls-8" d="M315.59,245.44s1.1.77,1.6,2.64.99,1.98.72,3.86-1.65,5.45-2.15,5.73,1.21.88,1.38.88.88-2.59,1.32-3.47.94-3.2,1.54-3.86,3.36-1.27,5.01-2.75,2.15-2.04,3.91-2.04,10.3-.28,11.29-.22,1.76.88,1.76.88c0,0-.61-1.16-1.1-1.87s-.39-1.43-1.27-1.16-8.37.77-10.85.72-7-1.49-8.65-1.27-2.97.17-4.41.17-2.04.39-2.04.55-.22,1.1-.22,1.32.99-.66,2.15-.11Z"/><ellipse class="cls-16" cx="320.62" cy="246.74" rx="1.69" ry="1.76"/><path class="cls-8" d="M348.39,253.09s-1.3.33-3.04-.53-2.15-.55-3.38-1.99-3.04-4.82-2.92-5.38-1.46.34-1.57.46,1.38,2.36,1.76,3.27,1.8,2.8,1.9,3.69-1.25,3.37-1.2,5.59.13,2.96-1.02,4.29-6.54,7.96-7.23,8.68-1.82.75-1.82.75c0,0,1.27.3,2.14.4s1.33.65,1.7-.2,4.9-6.83,6.57-8.67,5.71-4.31,6.62-5.7,1.82-2.36,2.76-3.44,1.04-1.79.92-1.9-.69-.89-.85-1.03-.15,1.18-1.32,1.7Z"/><ellipse class="cls-16" cx="344.11" cy="256.03" rx="1.69" ry="1.76" transform="translate(-74.79 348.18) rotate(-49.06)"/><path class="cls-8" d="M275.41,269.9s1.38.06,2.09.94,4.57.44,6.45.88,3.53.11,4.13,1.54.83,2.09.55,2.7-1.71,1.05-1.71,1.05c0,0,.17.55.66.88s1.05,1.16,1.38.5.11-1.1.5-1.27,1.05.39,1.05-.5-.06-2.64,1.49-3.53,5.62-3.64,7.05-4.68,4.08-2.31,4.08-2.31c0,0,.11-.77-.17-.77s-5.62.88-7,.61-1.82-.44-2.15-1.65,0-1.98-.44-1.98-.99-.55-1.27.33-.28,1.82-.28,2.15-1.21,2.92-3.03,3.42-4.96,1.21-7.66.83-3.8-.28-4.3-1.54-.83-2.26-1.21-1.6-.22,4.02-.22,4.02Z"/><ellipse class="cls-16" cx="291.5" cy="270.8" rx="1.36" ry="1.43"/><path class="cls-8" d="M321.41,253.1s-3.58,3.03-5.51,3.58-8.04,4.19-9.37,5.18-1.82,1.82-4.19,2.42-4.79.72-5.51.66-1.82-.33-2.09-.33-.66,1.71-.5,2.09,3.31.11,4.74.33,1.54,1.98.77,2.53.94,1.32,1.76.99.44-2.7,2.42-3.58,7.11-1.6,8.59-1.87,3.8-4.08,5.12-5.07,3.14-3.03,4.08-4.19,2.53-1.43,2.2-1.71-2.53-1.05-2.53-1.05Z"/><ellipse class="cls-16" cx="311.33" cy="262.61" rx="1.95" ry="1.54"/><path class="cls-8" d="M368.42,233.34s-3.58,3.03-5.51,3.58-8.04,4.19-9.37,5.18-1.82,1.82-4.19,2.42-4.79.72-5.51.66-1.82-.33-2.09-.33-.66,1.71-.5,2.09,3.31.11,4.74.33,1.54,1.98.77,2.53.94,1.32,1.76.99.44-2.7,2.42-3.58,7.11-1.6,8.59-1.87,3.8-4.08,5.12-5.07,3.14-3.03,4.08-4.19,2.53-1.43,2.2-1.71-2.53-1.05-2.53-1.05Z"/><ellipse class="cls-16" cx="358.34" cy="242.85" rx="1.95" ry="1.54"/><path class="cls-8" d="M323.67,260.75c2.26,1.38,3.64,5.62,3.69,6.78s.28,4.63-.66,6.34-3.47,3.58-4.02,3.86,1.1,1.32,1.98,1.32,1.43-.55,2.42-1.49,3.09-.77,3.25-.77,1.98.88,1.87.17-.66-1.71-1.71-3.42-.61-5.56.44-6.5,2.59-2.26,2.53-2.75-4.19-5.18-5.62-6.12-.61-2.48-2.64-1.76-3.36,2.37-3.58,3.2,2.04,1.16,2.04,1.16Z"/><ellipse class="cls-16" cx="329.25" cy="263.75" rx="1.73" ry="1.65"/><path class="cls-8" d="M327.05,236.44c2.26,1.38,3.64,5.62,3.69,6.78s.28,4.63-.66,6.34-3.47,3.58-4.02,3.86,1.1,1.32,1.98,1.32,1.43-.55,2.42-1.49,3.09-.77,3.25-.77,1.98.88,1.87.17-.66-1.71-1.71-3.42-.61-5.56.44-6.5,2.59-2.26,2.53-2.75-4.19-5.18-5.62-6.12-.61-2.48-2.64-1.76-3.36,2.37-3.58,3.2,2.04,1.16,2.04,1.16Z"/><ellipse class="cls-16" cx="332.63" cy="239.43" rx="1.73" ry="1.65"/><path class="cls-8" d="M297.9,291.43s.76-1.61.41-2.42-1.94-3.27-1.71-4.2-.85-2.83,1.42-5.02,6.83-5.02,7.94-6.74-1.45-2.41-1.83-4.55-3.55-.01-4.25,1.15-3.02,6.58-3.02,7.75-1.73,4.77-2.65,5.7-2.32,1.63-2.32,1.63c0,0,.66,2.23,1.21,1.48s1.37-1.33,1.71-1.21,2.52,4.54,2.39,4.73.68,1.69.68,1.69Z"/><ellipse class="cls-16" cx="302.21" cy="272.71" rx="1.51" ry="1.62" transform="translate(-51.37 474.41) rotate(-71.76)"/><path class="cls-8" d="M285.58,275.24s-.22,1.76.37,2.42,2.86,2.5,2.94,3.45,1.69,2.42.22,5.22-4.92,6.9-5.44,8.89,2.13,1.84,3.16,3.75,3.38-1.1,3.67-2.42.81-7.2.44-8.3.15-5.07.73-6.24,1.69-2.28,1.69-2.28c0,0-1.32-1.91-1.62-1.03s-.88,1.69-1.25,1.69-3.82-3.53-3.75-3.75-1.18-1.4-1.18-1.4Z"/><ellipse class="cls-16" cx="287.35" cy="294.38" rx="1.62" ry="1.51"/><path class="cls-8" d="M289.77,191.06s-.22,1.76.37,2.42,2.86,2.5,2.94,3.45,1.69,2.42.22,5.22-4.92,6.9-5.44,8.89,2.13,1.84,3.16,3.75,3.38-1.1,3.67-2.42.81-7.2.44-8.3.15-5.07.73-6.24,1.69-2.28,1.69-2.28c0,0-1.32-1.91-1.62-1.03s-.88,1.69-1.25,1.69-3.82-3.53-3.75-3.75-1.18-1.4-1.18-1.4Z"/><ellipse class="cls-16" cx="291.53" cy="210.2" rx="1.62" ry="1.51"/><path class="cls-8" d="M280.02,271.48s-1.7-.52-2.45-.05-2.95,2.4-3.9,2.31-2.68,1.25-5.18-.67c-2.5-1.92-5.97-6.02-7.84-6.86s-2.17,1.79-4.23,2.48.51,3.52,1.77,4.03,6.96,2.02,8.11,1.84,4.97,1,6.03,1.78,1.96,2.05,1.96,2.05c0,0,2.11-.98,1.29-1.42s-1.52-1.16-1.45-1.52,4.12-3.17,4.33-3.06,1.57-.92,1.57-.92Z"/><ellipse class="cls-16" cx="260.87" cy="269.97" rx="1.62" ry="1.51" transform="translate(-49.42 481.29) rotate(-80.24)"/><path class="cls-8" d="M292.75,212.88s-.22,1.76.37,2.42,2.86,2.5,2.94,3.45,1.69,2.42.22,5.22c-1.47,2.79-4.92,6.9-5.44,8.89s2.13,1.84,3.16,3.75,3.38-1.1,3.67-2.42.81-7.2.44-8.3.15-5.07.73-6.24,1.69-2.28,1.69-2.28c0,0-1.32-1.91-1.62-1.03s-.88,1.69-1.25,1.69-3.82-3.53-3.75-3.75-1.18-1.4-1.18-1.4Z"/><ellipse class="cls-16" cx="294.51" cy="232.01" rx="1.62" ry="1.51"/><path class="cls-8" d="M311.04,222.8s-.22,1.76.37,2.42,2.86,2.5,2.94,3.45,1.69,2.42.22,5.22-4.92,6.9-5.44,8.89,2.13,1.84,3.16,3.75,3.38-1.1,3.67-2.42.81-7.2.44-8.3.15-5.07.73-6.24,1.69-2.28,1.69-2.28c0,0-1.32-1.91-1.62-1.03s-.88,1.69-1.25,1.69-3.82-3.53-3.75-3.75-1.18-1.4-1.18-1.4Z"/><ellipse class="cls-16" cx="312.8" cy="241.93" rx="1.62" ry="1.51"/><path class="cls-8" d="M335.83,228.3s-.22,1.76.37,2.42,2.86,2.5,2.94,3.45,1.69,2.42.22,5.22c-1.47,2.79-4.92,6.9-5.44,8.89s2.13,1.84,3.16,3.75,3.38-1.1,3.67-2.42.81-7.2.44-8.3.15-5.07.73-6.24,1.69-2.28,1.69-2.28c0,0-1.32-1.91-1.62-1.03s-.88,1.69-1.25,1.69-3.82-3.53-3.75-3.75-1.18-1.4-1.18-1.4Z"/><ellipse class="cls-16" cx="337.59" cy="247.44" rx="1.62" ry="1.51"/><path class="cls-8" d="M314.19,262.68s.07,7.64.15,11.46c.07,3.82-1.47,7.57-2.13,8.81s-1.25,4.04-3.97,4.85-3.38,1.98-6.1,1.47-3.82-1.69-4.85-1.69-5.51-2.06-6.02-2.06-.95,1.4-.95,1.4c0,0,5.29,1.47,6.24,1.98s7.27,2.13,8.15,2.28,6.46.44,7.35.81,1.98,1.69,2.86,4.11,1.1,2.5,1.84,2.5.66-1.54-.44-2.13-2.06-2.86-1.54-4.48,3.09-3.01,3.09-3.01c0,0-.73-6.39-1.1-7.71s-.59-5.8-.95-9.4c-.37-3.6-.44-7.93-.15-8.67s-1.47-.51-1.47-.51Z"/><ellipse class="cls-16" cx="313.86" cy="287.25" rx="1.8" ry="1.65"/><path class="cls-8" d="M287.31,211.01s.07,7.64.15,11.46c.07,3.82-1.47,7.57-2.13,8.81s-1.25,4.04-3.97,4.85-3.38,1.98-6.1,1.47-3.82-1.69-4.85-1.69-5.51-2.06-6.02-2.06-.95,1.4-.95,1.4c0,0,5.29,1.47,6.24,1.98s7.27,2.13,8.15,2.28,6.46.44,7.35.81,1.98,1.69,2.86,4.11,1.1,2.5,1.84,2.5.66-1.54-.44-2.13-2.06-2.86-1.54-4.48,3.09-3.01,3.09-3.01c0,0-.73-6.39-1.1-7.71s-.59-5.8-.95-9.4c-.37-3.6-.44-7.93-.15-8.67s-1.47-.51-1.47-.51Z"/><ellipse class="cls-16" cx="286.98" cy="235.58" rx="1.8" ry="1.65"/><path class="cls-8" d="M282.88,270.06s3.07-6.99,4.58-10.51,4.45-6.29,5.57-7.16,2.8-3.17,5.61-2.79,3.9-.42,6.16,1.17c2.27,1.59,2.79,3.11,3.72,3.53s4.18,4.14,4.64,4.35,1.44-.88,1.44-.88c0,0-4.22-3.51-4.88-4.37s-5.75-4.93-6.5-5.43-5.71-3.06-6.36-3.76-1.11-2.36-.92-4.93c.19-2.57.02-2.73-.65-3.03s-1.24,1.13-.47,2.12.7,3.46-.44,4.72-4.05,1.48-4.05,1.48c0,0-1.96,6.13-2.17,7.48s-1.85,5.53-3,8.96c-1.15,3.43-2.86,7.41-3.43,7.96s1.13,1.07,1.13,1.07Z"/><ellipse class="cls-16" cx="293.29" cy="247.8" rx="1.65" ry="1.8" transform="translate(-53.18 413.27) rotate(-65.72)"/><path class="cls-8" d="M319.32,194.72s-.24,7.64-.32,11.46c-.08,3.82-1.77,7.5-2.49,8.72s-1.41,3.99-4.16,4.68-3.46,1.84-6.15,1.22-3.75-1.84-4.78-1.88-5.42-2.28-5.93-2.3-1.01,1.36-1.01,1.36c0,0,5.22,1.68,6.16,2.23s7.18,2.42,8.05,2.61,6.44.7,7.31,1.11,1.91,1.77,2.7,4.23,1,2.54,1.73,2.57.72-1.51-.35-2.15-1.94-2.95-1.36-4.54,3.2-2.88,3.2-2.88c0,0-.47-6.42-.79-7.75s-.35-5.82-.57-9.43c-.22-3.61-.12-7.94.2-8.67s-1.45-.57-1.45-.57Z"/><ellipse class="cls-16" cx="317.99" cy="219.26" rx="1.65" ry="1.8" transform="translate(86.02 528.1) rotate(-87.68)"/><path class="cls-8" d="M359.7,202.23s1.87,7.41,2.84,11.1c.97,3.69.36,7.7,0,9.07s-.26,4.22-2.71,5.65-2.82,2.72-5.58,2.87-4.11-.74-5.11-.5-5.84-.7-6.34-.58-.6,1.58-.6,1.58c0,0,5.49.18,6.54.46s7.57.36,8.46.29,6.39-1.1,7.33-.95,2.33,1.17,3.75,3.32,1.66,2.17,2.37,1.99.28-1.65-.93-1.97-2.67-2.3-2.56-3.99,2.29-3.65,2.29-3.65c0,0-2.22-6.04-2.89-7.24s-1.94-5.5-3.14-8.91-2.3-7.61-2.19-8.39-1.55-.15-1.55-.15Z"/><ellipse class="cls-16" cx="365.17" cy="226.18" rx="1.8" ry="1.65" transform="translate(-43.04 92.49) rotate(-13.64)"/><path class="cls-8" d="M362.86,240.79s.07,7.64.15,11.46c.07,3.82-1.47,7.57-2.13,8.81s-1.25,4.04-3.97,4.85-3.38,1.98-6.1,1.47-3.82-1.69-4.85-1.69-5.51-2.06-6.02-2.06-.95,1.4-.95,1.4c0,0,5.29,1.47,6.24,1.98s7.27,2.13,8.15,2.28,6.46.44,7.35.81,1.98,1.69,2.86,4.11,1.1,2.5,1.84,2.5.66-1.54-.44-2.13-2.06-2.86-1.54-4.48,3.09-3.01,3.09-3.01c0,0-.73-6.39-1.1-7.71s-.59-5.8-.95-9.4c-.37-3.6-.44-7.93-.15-8.67s-1.47-.51-1.47-.51Z"/><ellipse class="cls-16" cx="362.53" cy="265.36" rx="1.8" ry="1.65"/><path class="cls-8" d="M334.03,229.35s1.1.77,1.6,2.64.99,1.98.72,3.86-1.65,5.45-2.15,5.73,1.21.88,1.38.88.88-2.59,1.32-3.47.94-3.2,1.54-3.86,3.36-1.27,5.01-2.75,2.15-2.04,3.91-2.04,10.3-.28,11.29-.22,1.76.88,1.76.88c0,0-.61-1.16-1.1-1.87s-.39-1.43-1.27-1.16-8.37.77-10.85.72-7-1.49-8.65-1.27-2.97.17-4.41.17-2.04.39-2.04.55-.22,1.1-.22,1.32.99-.66,2.15-.11Z"/><ellipse class="cls-16" cx="339.06" cy="230.66" rx="1.69" ry="1.76"/><path class="cls-8" d="M219.3,361.14s1.03-.87,2.96-.87,2.17-.45,3.91.29,4.85,2.98,4.99,3.53,1.16-.95,1.2-1.11-2.28-1.51-3.02-2.16-2.85-1.72-3.34-2.47-.37-3.57-1.39-5.55-1.43-2.6-.98-4.3,2.35-10.03,2.66-10.98,1.3-1.48,1.3-1.48c0,0-1.27.29-2.09.59s-1.48,0-1.44.93-1.38,8.29-2.07,10.68-3.22,6.39-3.42,8.04-.6,2.92-.96,4.3-.15,2.07.01,2.11,1.01.49,1.22.55-.39-1.13.44-2.11Z"/><ellipse class="cls-16" cx="221.84" cy="356.6" rx="1.69" ry="1.76" transform="translate(-179.44 480.5) rotate(-75.27)"/><path class="cls-8" d="M186.2,260.84s1.03-.87,2.96-.87,2.17-.45,3.91.29,4.85,2.98,4.99,3.53,1.16-.95,1.2-1.11-2.28-1.51-3.02-2.16-2.85-1.72-3.34-2.47-.37-3.57-1.39-5.55-1.43-2.6-.98-4.3,2.35-10.03,2.66-10.98,1.3-1.48,1.3-1.48c0,0-1.27.29-2.09.59s-1.48,0-1.44.93-1.38,8.29-2.07,10.68-3.22,6.39-3.42,8.04-.6,2.92-.96,4.3-.15,2.07.01,2.11,1.01.49,1.22.55-.39-1.13.44-2.11Z"/><ellipse class="cls-16" cx="188.74" cy="256.31" rx="1.69" ry="1.76" transform="translate(-107.13 373.68) rotate(-75.27)"/><path class="cls-8" d="M208.51,299.06s1.03-.87,2.96-.87,2.17-.45,3.91.29,4.85,2.98,4.99,3.53,1.16-.95,1.2-1.11-2.28-1.51-3.02-2.16-2.85-1.72-3.34-2.47-.37-3.57-1.39-5.55-1.43-2.6-.98-4.3,2.35-10.03,2.66-10.98,1.3-1.48,1.3-1.48c0,0-1.27.29-2.09.59s-1.48,0-1.44.93-1.38,8.29-2.07,10.68-3.22,6.39-3.42,8.04-.6,2.92-.96,4.3-.15,2.07.01,2.11,1.01.49,1.22.55-.39-1.13.44-2.11Z"/><ellipse class="cls-16" cx="211.05" cy="294.52" rx="1.69" ry="1.76" transform="translate(-127.45 423.76) rotate(-75.27)"/><path class="cls-8" d="M221.91,306.15s1.03-.87,2.96-.87,2.17-.45,3.91.29,4.85,2.98,4.99,3.53,1.16-.95,1.2-1.11-2.28-1.51-3.02-2.16-2.85-1.72-3.34-2.47-.37-3.57-1.39-5.55c-1.02-1.98-1.43-2.6-.98-4.3s2.35-10.03,2.66-10.98,1.3-1.48,1.3-1.48c0,0-1.27.29-2.09.59s-1.48,0-1.44.93-1.38,8.29-2.07,10.68-3.22,6.39-3.42,8.04-.6,2.92-.96,4.3-.15,2.07.01,2.11,1.01.49,1.22.55-.39-1.13.44-2.11Z"/><ellipse class="cls-16" cx="224.45" cy="301.62" rx="1.69" ry="1.76" transform="translate(-124.32 442.01) rotate(-75.27)"/><path class="cls-8" d="M237.64,276.38s-.02,1.34-1.28,2.81-1.08,1.94-2.78,2.77-5.44,1.71-5.94,1.46-.04,1.5.05,1.63,2.64-.73,3.61-.87,3.17-1.03,4.05-.9,2.94,2.06,5.1,2.59,2.89.62,3.89,2.08,6.04,8.35,6.55,9.2.27,1.95.27,1.95c0,0,.61-1.15.93-1.97s.97-1.13.24-1.7-5.36-6.48-6.71-8.56-2.72-6.62-3.83-7.86-1.81-2.36-2.62-3.55-1.47-1.47-1.6-1.37-1.03.44-1.22.56,1.11.45,1.3,1.71Z"/><ellipse class="cls-16" cx="239.4" cy="281.27" rx="1.76" ry="1.69" transform="translate(-116.92 184) rotate(-34.33)"/><path class="cls-8" d="M235.35,351.23s.4-1.32,1.44-1.79,1.59-4.31,2.49-6.01,1-3.38,2.54-3.6,2.23-.27,2.75.15.58,1.92.58,1.92c0,0,.57-.02,1.02-.42s1.38-.72.83-1.21-1.04-.39-1.1-.8.64-.91-.21-1.14-2.57-.62-3.03-2.33-2.09-6.36-2.74-8.01-1.2-4.53-1.2-4.53c0,0-.72-.3-.79-.04s-.58,5.66-1.19,6.92-.89,1.65-2.14,1.66-1.92-.5-2.03-.08-.78.82,0,1.31,1.69.73,2.01.81,2.52,1.91,2.53,3.8-.09,5.1-1.15,7.62-1.23,3.61-2.58,3.76-2.39.22-1.85.77,3.83,1.24,3.83,1.24Z"/><ellipse class="cls-16" cx="240.31" cy="335.9" rx="1.36" ry="1.43" transform="translate(-145.65 482.92) rotate(-75.27)"/><path class="cls-8" d="M230.8,302.47s2.02,4.23,2.06,6.24,2,8.84,2.63,10.37,1.3,2.22,1.28,4.67-.53,4.82-.76,5.5-.78,1.67-.85,1.94,1.48,1.07,1.9,1.01.95-3.17,1.52-4.5,2.31-.99,2.65-.1,1.52-.57,1.41-1.45-2.5-1.11-2.85-3.25.26-7.28.37-8.79-2.98-4.71-3.6-6.24-2.13-3.81-3.01-5.01-.74-2.82-1.09-2.57-1.66,2.18-1.66,2.18Z"/><ellipse class="cls-16" cx="237.43" cy="314.64" rx="1.95" ry="1.54" transform="translate(-127.23 464.28) rotate(-75.27)"/><path class="cls-8" d="M223.64,251.98s2.02,4.23,2.06,6.24,2,8.84,2.63,10.37,1.3,2.22,1.28,4.67-.53,4.82-.76,5.5-.78,1.67-.85,1.94,1.48,1.07,1.9,1.01.95-3.17,1.52-4.5,2.31-.99,2.65-.1,1.52-.57,1.41-1.45-2.5-1.11-2.85-3.25.26-7.28.37-8.79-2.98-4.71-3.6-6.24-2.13-3.81-3.01-5.01-.74-2.82-1.09-2.57-1.66,2.18-1.66,2.18Z"/><ellipse class="cls-16" cx="230.27" cy="264.15" rx="1.95" ry="1.54" transform="translate(-83.74 419.7) rotate(-75.27)"/><path class="cls-8" d="M238.78,302.23c1.91-1.83,6.36-2.09,7.49-1.85s4.55.91,5.96,2.25,2.58,4.27,2.71,4.87,1.56-.73,1.78-1.58-.17-1.53-.82-2.72.04-3.18.08-3.34,1.36-1.69.64-1.77-1.82.21-3.74.78-5.54-.83-6.18-2.08-1.53-3.08-2.02-3.15-6.07,2.73-7.34,3.88-2.55-.04-2.38,2.11c.17,2.15,1.44,3.85,2.18,4.28s1.64-1.68,1.64-1.68Z"/><ellipse class="cls-16" cx="243.09" cy="297.59" rx="1.73" ry="1.65" transform="translate(-106.53 457.04) rotate(-75.27)"/><path class="cls-8" d="M216.12,292.78c1.91-1.83,6.36-2.09,7.49-1.85s4.55.91,5.96,2.25c1.41,1.34,2.58,4.27,2.71,4.87s1.56-.73,1.78-1.58-.17-1.53-.82-2.72.04-3.18.08-3.34,1.36-1.69.64-1.77-1.82.21-3.74.78-5.54-.83-6.18-2.08-1.53-3.08-2.02-3.15-6.07,2.73-7.34,3.88-2.55-.04-2.38,2.11,1.44,3.85,2.18,4.28,1.64-1.68,1.64-1.68Z"/><ellipse class="cls-16" cx="220.43" cy="288.14" rx="1.73" ry="1.65" transform="translate(-114.28 428.08) rotate(-75.27)"/><path class="cls-8" d="M261.9,334.95s-1.36-1.14-2.23-1.01-3.65,1.04-4.5.59-2.95.1-4.5-2.65-3.12-7.89-4.5-9.4-2.7.79-4.86.61-.91,3.43.04,4.4,5.6,4.59,6.72,4.89,4.17,2.88,4.84,4.01.99,2.66.99,2.66c0,0,2.32-.07,1.74-.8s-.94-1.66-.74-1.97,5.04-1.29,5.18-1.1,1.81-.23,1.81-.23Z"/><ellipse class="cls-16" cx="244.88" cy="326.02" rx="1.62" ry="1.51" transform="translate(-161.89 354.09) rotate(-57.04)"/><path class="cls-8" d="M243.11,342.75s1.65.66,2.44.26,3.14-2.14,4.09-1.96,2.77-1.02,5.1,1.11c2.33,2.13,5.43,6.52,7.21,7.52s2.32-1.59,4.43-2.1-.21-3.55-1.41-4.17-6.76-2.61-7.92-2.54-4.86-1.43-5.85-2.3-1.77-2.21-1.77-2.21c0,0-2.18.79-1.41,1.3s1.41,1.28,1.32,1.64-4.38,2.8-4.58,2.67-1.65.78-1.65.78Z"/><ellipse class="cls-16" cx="262.06" cy="345.91" rx="1.62" ry="1.51" transform="translate(-139.11 511.42) rotate(-75.27)"/><path class="cls-8" d="M229.46,167.56s1.65.66,2.44.26,3.14-2.14,4.09-1.96,2.77-1.02,5.1,1.11c2.33,2.13,5.43,6.52,7.21,7.52s2.32-1.59,4.43-2.1-.21-3.55-1.41-4.17-6.76-2.61-7.92-2.54-4.86-1.43-5.85-2.3-1.77-2.21-1.77-2.21c0,0-2.18.79-1.41,1.3s1.41,1.28,1.32,1.64-4.38,2.8-4.58,2.67-1.65.78-1.65.78Z"/><ellipse class="cls-16" cx="248.41" cy="170.72" rx="1.62" ry="1.51" transform="translate(20.15 367.56) rotate(-75.27)"/><path class="cls-8" d="M162.76,317.3s1.65.66,2.44.26,3.14-2.14,4.09-1.96,2.77-1.02,5.1,1.11,5.43,6.52,7.21,7.52,2.32-1.59,4.43-2.1-.21-3.55-1.41-4.17-6.76-2.61-7.92-2.54-4.86-1.43-5.85-2.3-1.77-2.21-1.77-2.21c0,0-2.18.79-1.41,1.3s1.41,1.28,1.32,1.64-4.38,2.8-4.58,2.67-1.65.78-1.65.78Z"/><ellipse class="cls-16" cx="181.71" cy="320.46" rx="1.62" ry="1.51" transform="translate(-174.41 414.73) rotate(-75.27)"/><path class="cls-8" d="M238.05,347.17s-.93,1.51-.67,2.36,1.57,3.46,1.24,4.36.53,2.91-1.96,4.84-7.34,4.24-8.63,5.84c-1.29,1.59,1.18,2.55,1.32,4.72s3.53.4,4.35-.68,3.72-6.22,3.84-7.37,2.23-4.55,3.26-5.38,2.48-1.37,2.48-1.37c0,0-.41-2.29-1.04-1.61s-1.5,1.17-1.84,1.02-2.01-4.79-1.86-4.96-.49-1.76-.49-1.76Z"/><ellipse class="cls-16" cx="231.72" cy="365.31" rx="1.51" ry="1.62" transform="translate(-196.78 424.77) rotate(-65.51)"/><path class="cls-8" d="M184.61,319.97s1.65.66,2.44.26,3.14-2.14,4.09-1.96,2.77-1.02,5.1,1.11,5.43,6.52,7.21,7.52c1.79,1,2.32-1.59,4.43-2.1s-.21-3.55-1.41-4.17-6.76-2.61-7.92-2.54-4.86-1.43-5.85-2.3-1.77-2.21-1.77-2.21c0,0-2.18.79-1.41,1.3s1.41,1.28,1.32,1.64-4.38,2.8-4.58,2.67-1.65.78-1.65.78Z"/><ellipse class="cls-16" cx="203.57" cy="323.13" rx="1.62" ry="1.51" transform="translate(-160.7 437.86) rotate(-75.27)"/><path class="cls-8" d="M198.85,304.8s1.65.66,2.44.26,3.14-2.14,4.09-1.96,2.77-1.02,5.1,1.11,5.43,6.52,7.21,7.52,2.32-1.59,4.43-2.1-.21-3.55-1.41-4.17-6.76-2.61-7.92-2.54-4.86-1.43-5.85-2.3-1.77-2.21-1.77-2.21c0,0-2.18.79-1.41,1.3s1.41,1.28,1.32,1.64-4.38,2.8-4.58,2.67-1.65.78-1.65.78Z"/><ellipse class="cls-16" cx="217.81" cy="307.96" rx="1.62" ry="1.51" transform="translate(-135.41 440.32) rotate(-75.27)"/><path class="cls-8" d="M210.48,282.22s1.65.66,2.44.26,3.14-2.14,4.09-1.96,2.77-1.02,5.1,1.11,5.43,6.52,7.21,7.52,2.32-1.59,4.43-2.1c2.11-.51-.21-3.55-1.41-4.17s-6.76-2.61-7.92-2.54-4.86-1.43-5.85-2.3-1.77-2.21-1.77-2.21c0,0-2.18.79-1.41,1.3s1.41,1.28,1.32,1.64-4.38,2.8-4.58,2.67-1.65.78-1.65.78Z"/><ellipse class="cls-16" cx="229.44" cy="285.38" rx="1.62" ry="1.51" transform="translate(-104.9 434.73) rotate(-75.27)"/><path class="cls-8" d="M238.23,311.88s7.41,1.87,11.12,2.77,6.94,3.34,7.98,4.3,3.59,2.23,3.68,5.07,1.06,3.77-.13,6.27c-1.19,2.5-2.6,3.26-2.87,4.26s-3.39,4.81-3.52,5.3,1.11,1.28,1.11,1.28c0,0,2.77-4.74,3.51-5.53s3.91-6.49,4.28-7.31,2.07-6.14,2.65-6.9,2.14-1.49,4.71-1.72c2.57-.24,2.7-.43,2.88-1.14s-1.32-1.03-2.17-.12-3.29,1.26-4.73.35-2.13-3.75-2.13-3.75c0,0-6.37-.91-7.74-.9s-5.76-.91-9.34-1.47c-3.57-.56-7.78-1.59-8.42-2.06s-.87,1.29-.87,1.29Z"/><ellipse class="cls-16" cx="261.91" cy="318.45" rx="1.8" ry="1.65" transform="translate(-112.66 490.79) rotate(-75.27)"/><path class="cls-8" d="M181.42,324.75s7.41,1.87,11.12,2.77,6.94,3.34,7.98,4.3,3.59,2.23,3.68,5.07,1.06,3.77-.13,6.27-2.6,3.26-2.87,4.26-3.39,4.81-3.52,5.3,1.11,1.28,1.11,1.28c0,0,2.77-4.74,3.51-5.53s3.91-6.49,4.28-7.31,2.07-6.14,2.65-6.9,2.14-1.49,4.71-1.72c2.57-.24,2.7-.43,2.88-1.14s-1.32-1.03-2.17-.12-3.29,1.26-4.73.35-2.13-3.75-2.13-3.75c0,0-6.37-.91-7.74-.9s-5.76-.91-9.34-1.47c-3.57-.56-7.78-1.59-8.42-2.06s-.87,1.29-.87,1.29Z"/><ellipse class="cls-16" cx="205.1" cy="331.31" rx="1.8" ry="1.65" transform="translate(-167.47 445.44) rotate(-75.27)"/><path class="cls-8" d="M237.41,344.04s-5.98-4.75-9-7.1-4.95-5.9-5.51-7.2-2.35-3.51-1.27-6.13.59-3.87,2.7-5.66c2.11-1.79,3.72-1.9,4.36-2.7s5.07-2.99,5.39-3.39-.48-1.62-.48-1.62c0,0-4.47,3.19-5.47,3.6s-6.23,4.31-6.9,4.9-4.41,4.75-5.25,5.2-2.56.48-5-.36c-2.44-.84-2.63-.72-3.1-.14s.78,1.48,1.93,1,3.52.2,4.45,1.62.4,4.29.4,4.29c0,0,5.43,3.45,6.69,4s4.88,3.2,7.91,5.18,6.44,4.65,6.83,5.34,1.32-.82,1.32-.82Z"/><ellipse class="cls-16" cx="218.52" cy="328.32" rx="1.8" ry="1.65" transform="translate(-174.15 291.49) rotate(-50.99)"/><path class="cls-8" d="M173.81,289.65s7.32,2.17,11,3.22c3.67,1.05,6.8,3.62,7.8,4.62s3.5,2.38,3.47,5.21.91,3.81-.38,6.26-2.74,3.16-3.04,4.14-3.58,4.66-3.73,5.16,1.05,1.32,1.05,1.32c0,0,2.96-4.63,3.73-5.39s4.17-6.33,4.57-7.13,2.32-6.05,2.93-6.79,2.2-1.4,4.77-1.53,2.71-.32,2.93-1.02-1.28-1.08-2.17-.2-3.34,1.13-4.74.16-1.97-3.83-1.97-3.83c0,0-6.32-1.17-7.7-1.21s-5.72-1.14-9.27-1.84-7.71-1.9-8.33-2.4-.92,1.25-.92,1.25Z"/><ellipse class="cls-16" cx="197.2" cy="297.17" rx="1.8" ry="1.65" transform="translate(-144.73 398.56) rotate(-72.95)"/><path class="cls-8" d="M191.33,252.5s7.64.07,11.46.07c3.82,0,7.54,1.61,8.77,2.3s4.02,1.33,4.77,4.06,1.92,3.42,1.35,6.12c-.57,2.71-1.76,3.79-1.78,4.81s-2.16,5.47-2.17,5.98,1.38.98,1.38.98c0,0,1.57-5.26,2.1-6.2s2.27-7.23,2.43-8.11.56-6.45.95-7.33,1.73-1.95,4.17-2.79,2.52-1.05,2.53-1.79-1.53-.69-2.14.4-2.9,2-4.51,1.46-2.95-3.14-2.95-3.14c0,0-6.4.61-7.73.95s-5.81.48-9.42.78-7.94.29-8.67-.02-.54,1.46-.54,1.46Z"/><ellipse class="cls-16" cx="215.89" cy="253.3" rx="1.8" ry="1.65" transform="translate(-41.47 464.34) rotate(-88.91)"/><path class="cls-8" d="M234.2,160.64s7.64.07,11.46.07c3.82,0,7.54,1.61,8.77,2.3s4.02,1.33,4.77,4.06,1.92,3.42,1.35,6.12c-.57,2.71-1.76,3.79-1.78,4.81s-2.16,5.47-2.17,5.98,1.38.98,1.38.98c0,0,1.57-5.26,2.1-6.2s2.27-7.23,2.43-8.11.56-6.45.95-7.33,1.73-1.95,4.17-2.79,2.52-1.05,2.53-1.79-1.53-.69-2.14.4-2.9,2-4.51,1.46-2.95-3.14-2.95-3.14c0,0-6.4.61-7.73.95s-5.81.48-9.42.78-7.94.29-8.67-.02-.54,1.46-.54,1.46Z"/><ellipse class="cls-16" cx="258.76" cy="161.44" rx="1.8" ry="1.65" transform="translate(92.43 417.09) rotate(-88.91)"/><path class="cls-8" d="M229.43,259.26s7.41,1.87,11.12,2.77,6.94,3.34,7.98,4.3,3.59,2.23,3.68,5.07c.09,2.83,1.06,3.77-.13,6.27s-2.6,3.26-2.87,4.26-3.39,4.81-3.52,5.3,1.11,1.28,1.11,1.28c0,0,2.77-4.74,3.51-5.53s3.91-6.49,4.28-7.31,2.07-6.14,2.65-6.9,2.14-1.49,4.71-1.72,2.7-.43,2.88-1.14-1.32-1.03-2.17-.12-3.29,1.26-4.73.35-2.13-3.75-2.13-3.75c0,0-6.37-.91-7.74-.9s-5.76-.91-9.34-1.47c-3.57-.56-7.78-1.59-8.42-2.06s-.87,1.29-.87,1.29Z"/><ellipse class="cls-16" cx="253.11" cy="265.82" rx="1.8" ry="1.65" transform="translate(-68.32 443.04) rotate(-75.27)"/><path class="cls-8" d="M211.04,284.23s1.03-.87,2.96-.87,2.17-.45,3.91.29,4.85,2.98,4.99,3.53,1.16-.95,1.2-1.11-2.28-1.51-3.02-2.16-2.85-1.72-3.34-2.47-.37-3.57-1.39-5.55-1.43-2.6-.98-4.3,2.35-10.03,2.66-10.98,1.3-1.48,1.3-1.48c0,0-1.27.29-2.09.59s-1.48,0-1.44.93-1.38,8.29-2.07,10.68-3.22,6.39-3.42,8.04-.6,2.92-.96,4.3-.15,2.07.01,2.11,1.01.49,1.22.55-.39-1.13.44-2.11Z"/><ellipse class="cls-16" cx="213.58" cy="279.7" rx="1.69" ry="1.76" transform="translate(-111.23 415.15) rotate(-75.27)"/></g></g></g></svg>